<svg width="32" height="32" viewBox="0 0 32 32" fill="none" xmlns="http://www.w3.org/2000/svg">
<path d="M8.45083 19.7926C8.6071 18.4987 9.13777 17.7742 10.1378 17.0316C11.5687 16.0258 13.356 16.5948 13.356 16.5948V13.2196C13.7905 13.2085 14.2252 13.2342 14.655 13.2966V17.6401C14.655 17.6401 12.8682 17.0711 11.4373 18.0774C10.4379 18.8196 9.90611 19.5445 9.75038 20.8384C9.7455 21.541 9.87735 22.4594 10.4845 23.2536C10.3344 23.1766 10.1814 23.0889 10.0255 22.9904C8.68795 22.0923 8.44432 20.7448 8.45083 19.7926ZM22.035 6.97892C21.0507 5.90033 20.6785 4.81133 20.5439 4.04633H21.7822C21.7822 4.04633 21.5353 6.05218 23.3346 8.02475L23.3595 8.05128C22.8746 7.74624 22.4299 7.38618 22.035 6.97892ZM27.9999 10.0369V14.293C27.9999 14.293 26.4199 14.2311 25.2505 13.9336C23.6178 13.5176 22.5684 12.8795 22.5684 12.8795C22.5684 12.8795 21.8435 12.4244 21.7849 12.3927V21.1817C21.7849 21.671 21.6509 22.8932 21.2423 23.9125C20.7089 25.2459 19.8858 26.1211 19.7344 26.3C19.7344 26.3 18.7333 27.4832 16.9671 28.2799C15.3751 28.9986 13.9773 28.9804 13.5595 28.9986C13.5595 28.9986 11.1433 29.0943 8.96902 27.6813C8.49886 27.3699 8.05998 27.0171 7.65808 26.6277L7.66893 26.6355C9.84371 28.0485 12.2594 27.9528 12.2594 27.9528C12.6778 27.9346 14.0755 27.9528 15.667 27.2341C17.4315 26.4373 18.4343 25.2542 18.4343 25.2542C18.584 25.0753 19.411 24.2001 19.9422 22.8661C20.3497 21.8473 20.4848 20.6247 20.4848 20.1353V11.3474C20.5434 11.3796 21.2678 11.8347 21.2678 11.8347C21.2678 11.8347 22.3177 12.4733 23.9504 12.8888C25.1203 13.1863 26.6998 13.2482 26.6998 13.2482V9.91308C27.2403 10.0343 27.7009 10.067 27.9999 10.0369Z" fill="#EE1D52"/>
<path d="M26.7004 9.91308V13.2472C26.7004 13.2472 25.1208 13.1853 23.951 12.8878C22.3183 12.4718 21.2683 11.8336 21.2683 11.8336C21.2683 11.8336 20.5439 11.3786 20.4853 11.3464V20.1363C20.4853 20.6257 20.3513 21.8484 19.9427 22.8672C19.4093 24.2011 18.5862 25.0763 18.4348 25.2552C18.4348 25.2552 17.4332 26.4384 15.6675 27.2351C14.076 27.9538 12.6783 27.9356 12.2599 27.9538C12.2599 27.9538 9.84424 28.0495 7.66946 26.6365L7.65861 26.6287C7.429 26.4064 7.21287 26.1716 7.01128 25.9256C6.31728 25.0795 5.89188 24.0789 5.78498 23.7934C5.7848 23.7922 5.7848 23.7909 5.78498 23.7897C5.61298 23.2936 5.2516 22.1021 5.30098 20.9481C5.38834 18.9121 6.10458 17.6624 6.29395 17.3494C6.79549 16.4956 7.44779 15.7318 8.22184 15.0918C8.90489 14.5396 9.67911 14.1002 10.5127 13.7917C11.4139 13.4294 12.3789 13.2353 13.356 13.2196V16.5948C13.356 16.5948 11.5686 16.0279 10.1383 17.0316C9.13831 17.7742 8.60763 18.4987 8.45136 19.7926C8.44485 20.7448 8.68848 22.0923 10.0249 22.9909C10.1808 23.0897 10.3339 23.1775 10.484 23.2541C10.7175 23.5576 11.0016 23.822 11.325 24.0368C12.6305 24.8631 13.7244 24.9209 15.1233 24.3842C16.056 24.0253 16.7582 23.2166 17.0837 22.3206C17.2883 21.761 17.2856 21.1978 17.2856 20.6153V4.04633H20.5412C20.6758 4.81133 21.048 5.90033 22.0323 6.97892C22.4272 7.38618 22.8719 7.74624 23.3568 8.05128C23.5001 8.19949 24.2326 8.93225 25.1729 9.3821C25.6592 9.61463 26.1717 9.79279 26.7004 9.91308Z" fill="black"/>
<path d="M4.48926 22.757V22.7596L4.57004 22.9785C4.56076 22.953 4.53074 22.8755 4.48926 22.757Z" fill="#69C9D0"/>
<path d="M10.5128 13.7917C9.67919 14.1002 8.90498 14.5396 8.22192 15.0918C7.44763 15.7333 6.79548 16.4987 6.29458 17.3541C6.10521 17.6661 5.38897 18.9169 5.30161 20.9529C5.25223 22.1069 5.61361 23.2983 5.78561 23.7945C5.78543 23.7957 5.78543 23.7969 5.78561 23.7981C5.89413 24.081 6.31791 25.0816 7.01191 25.9303C7.2135 26.1764 7.42963 26.4111 7.65924 26.6334C6.92357 26.1458 6.26746 25.5562 5.71236 24.884C5.02433 24.0451 4.60001 23.0549 4.48932 22.7627C4.48919 22.7606 4.48919 22.7585 4.48932 22.7564V22.7528C4.31677 22.2572 3.95431 21.0652 4.00477 19.9096C4.09213 17.8736 4.80838 16.6239 4.99775 16.3109C5.4985 15.4554 6.15067 14.6899 6.92509 14.0486C7.608 13.4962 8.38225 13.0568 9.21598 12.7485C9.73602 12.5417 10.2778 12.3891 10.8319 12.2934C11.6669 12.1537 12.5198 12.1416 13.3588 12.2575V13.2196C12.3808 13.235 11.4148 13.4291 10.5128 13.7917Z" fill="#69C9D0"/>
<path d="M20.5439 4.04635H17.2883V20.6159C17.2883 21.1983 17.2883 21.76 17.0864 22.3211C16.7576 23.2167 16.0582 24.0253 15.126 24.3842C13.7266 24.923 12.6327 24.8632 11.3277 24.0368C11.0038 23.823 10.7189 23.5594 10.4845 23.2567C11.5963 23.8251 12.5914 23.8152 13.8243 23.341C14.7559 22.9821 15.4564 22.1734 15.7842 21.2774C15.9893 20.7178 15.9865 20.1546 15.9865 19.5726V3H20.4821C20.4821 3 20.4316 3.41188 20.5439 4.04635ZM26.7003 8.99104V9.9131C26.1726 9.79263 25.661 9.61447 25.1756 9.38213C24.2353 8.93228 23.5028 8.19952 23.3595 8.0513C23.5257 8.1559 23.6982 8.25106 23.8761 8.33629C25.0193 8.88339 26.1453 9.04669 26.7003 8.99104Z" fill="#69C9D0"/>
</svg>
